<?xml version="1.0" encoding="UTF-8"?>
<mxfile host="app.diagrams.net" modified="2024-01-31T06:44:18.590Z" agent="Mozilla/5.0 (Windows NT 10.0; Win64; x64) AppleWebKit/537.36 (KHTML, like Gecko) Chrome/121.0.0.0 Safari/537.36 Edg/121.0.0.0" etag="IR4h7IilyOXoq-1lnmlc" version="23.0.2" type="browser">
  <diagram name="第 1 页" id="Bp_cYL6hXEdWuqoxUMTZ">
    <mxGraphModel dx="2630" dy="1258" grid="1" gridSize="10" guides="1" tooltips="1" connect="1" arrows="1" fold="1" page="1" pageScale="1" pageWidth="827" pageHeight="1169" math="0" shadow="0">
      <root>
        <mxCell id="0" />
        <mxCell id="1" parent="0" />
        <mxCell id="y6Ay9FpWS1hhhK344CAB-12" value="&lt;font face=&quot;Times New Roman&quot;&gt;&lt;span style=&quot;font-size: 28px;&quot;&gt;2，15，19&amp;nbsp;&amp;nbsp;&lt;/span&gt;&lt;/font&gt;" style="rounded=0;whiteSpace=wrap;html=1;align=center;" vertex="1" parent="1">
          <mxGeometry x="-91.25" y="320.0000000000002" width="160" height="40" as="geometry" />
        </mxCell>
        <mxCell id="y6Ay9FpWS1hhhK344CAB-13" value="" style="rounded=0;whiteSpace=wrap;html=1;rotation=90;" vertex="1" parent="1">
          <mxGeometry x="-35.5" y="408.4400000000003" width="61.25" height="26.88" as="geometry" />
        </mxCell>
        <mxCell id="y6Ay9FpWS1hhhK344CAB-14" value="" style="endArrow=none;html=1;rounded=0;" edge="1" parent="1">
          <mxGeometry width="50" height="50" relative="1" as="geometry">
            <mxPoint x="-5.820000000000164" y="390.0000000000002" as="sourcePoint" />
            <mxPoint x="-5.5" y="350.0000000000002" as="targetPoint" />
          </mxGeometry>
        </mxCell>
        <mxCell id="y6Ay9FpWS1hhhK344CAB-15" value="" style="rounded=0;whiteSpace=wrap;html=1;rotation=90;" vertex="1" parent="1">
          <mxGeometry x="-91.25" y="408.4400000000003" width="61.25" height="26.88" as="geometry" />
        </mxCell>
        <mxCell id="y6Ay9FpWS1hhhK344CAB-16" value="" style="endArrow=none;html=1;rounded=0;" edge="1" parent="1">
          <mxGeometry width="50" height="50" relative="1" as="geometry">
            <mxPoint x="-61.570000000000164" y="390.0000000000002" as="sourcePoint" />
            <mxPoint x="-61.25" y="350.0000000000002" as="targetPoint" />
          </mxGeometry>
        </mxCell>
        <mxCell id="y6Ay9FpWS1hhhK344CAB-17" value="" style="rounded=0;whiteSpace=wrap;html=1;rotation=90;" vertex="1" parent="1">
          <mxGeometry x="17.5" y="408.4400000000003" width="61.25" height="26.88" as="geometry" />
        </mxCell>
        <mxCell id="y6Ay9FpWS1hhhK344CAB-18" value="" style="endArrow=none;html=1;rounded=0;" edge="1" parent="1">
          <mxGeometry width="50" height="50" relative="1" as="geometry">
            <mxPoint x="47.5" y="390.0000000000002" as="sourcePoint" />
            <mxPoint x="47.5" y="351.0000000000002" as="targetPoint" />
          </mxGeometry>
        </mxCell>
        <mxCell id="y6Ay9FpWS1hhhK344CAB-19" value="&lt;font face=&quot;Times New Roman&quot;&gt;&lt;span style=&quot;font-size: 28px;&quot;&gt;2，23，28&amp;nbsp;&amp;nbsp;&lt;/span&gt;&lt;/font&gt;" style="rounded=0;whiteSpace=wrap;html=1;align=center;" vertex="1" parent="1">
          <mxGeometry x="108.75" y="320.0000000000002" width="160" height="40" as="geometry" />
        </mxCell>
        <mxCell id="y6Ay9FpWS1hhhK344CAB-20" value="" style="rounded=0;whiteSpace=wrap;html=1;rotation=90;" vertex="1" parent="1">
          <mxGeometry x="165.5" y="408.4400000000003" width="61.25" height="26.88" as="geometry" />
        </mxCell>
        <mxCell id="y6Ay9FpWS1hhhK344CAB-21" value="" style="endArrow=none;html=1;rounded=0;" edge="1" parent="1">
          <mxGeometry width="50" height="50" relative="1" as="geometry">
            <mxPoint x="195.17999999999984" y="390.0000000000002" as="sourcePoint" />
            <mxPoint x="195.5" y="350.0000000000002" as="targetPoint" />
          </mxGeometry>
        </mxCell>
        <mxCell id="y6Ay9FpWS1hhhK344CAB-22" value="" style="rounded=0;whiteSpace=wrap;html=1;rotation=90;" vertex="1" parent="1">
          <mxGeometry x="108.75" y="408.4400000000003" width="61.25" height="26.88" as="geometry" />
        </mxCell>
        <mxCell id="y6Ay9FpWS1hhhK344CAB-23" value="" style="endArrow=none;html=1;rounded=0;" edge="1" parent="1">
          <mxGeometry width="50" height="50" relative="1" as="geometry">
            <mxPoint x="138.42999999999984" y="390.0000000000002" as="sourcePoint" />
            <mxPoint x="138.75" y="350.0000000000002" as="targetPoint" />
          </mxGeometry>
        </mxCell>
        <mxCell id="y6Ay9FpWS1hhhK344CAB-24" value="" style="rounded=0;whiteSpace=wrap;html=1;rotation=90;" vertex="1" parent="1">
          <mxGeometry x="217.5" y="408.4400000000003" width="61.25" height="26.88" as="geometry" />
        </mxCell>
        <mxCell id="y6Ay9FpWS1hhhK344CAB-25" value="" style="endArrow=none;html=1;rounded=0;" edge="1" parent="1">
          <mxGeometry width="50" height="50" relative="1" as="geometry">
            <mxPoint x="247.5" y="390.0000000000002" as="sourcePoint" />
            <mxPoint x="247.5" y="351.0000000000002" as="targetPoint" />
          </mxGeometry>
        </mxCell>
        <mxCell id="y6Ay9FpWS1hhhK344CAB-26" value="&lt;font face=&quot;Times New Roman&quot;&gt;&lt;span style=&quot;font-size: 28px;&quot;&gt;2，31，32&amp;nbsp;&amp;nbsp;&lt;/span&gt;&lt;/font&gt;" style="rounded=0;whiteSpace=wrap;html=1;align=center;" vertex="1" parent="1">
          <mxGeometry x="314.75" y="320.0000000000002" width="160" height="40" as="geometry" />
        </mxCell>
        <mxCell id="y6Ay9FpWS1hhhK344CAB-27" value="" style="rounded=0;whiteSpace=wrap;html=1;rotation=90;" vertex="1" parent="1">
          <mxGeometry x="371.5" y="408.4400000000003" width="61.25" height="26.88" as="geometry" />
        </mxCell>
        <mxCell id="y6Ay9FpWS1hhhK344CAB-28" value="" style="endArrow=none;html=1;rounded=0;" edge="1" parent="1">
          <mxGeometry width="50" height="50" relative="1" as="geometry">
            <mxPoint x="401.17999999999984" y="390.0000000000002" as="sourcePoint" />
            <mxPoint x="401.5" y="350.0000000000002" as="targetPoint" />
          </mxGeometry>
        </mxCell>
        <mxCell id="y6Ay9FpWS1hhhK344CAB-29" value="" style="rounded=0;whiteSpace=wrap;html=1;rotation=90;" vertex="1" parent="1">
          <mxGeometry x="314.75" y="408.4400000000003" width="61.25" height="26.88" as="geometry" />
        </mxCell>
        <mxCell id="y6Ay9FpWS1hhhK344CAB-30" value="" style="endArrow=none;html=1;rounded=0;" edge="1" parent="1">
          <mxGeometry width="50" height="50" relative="1" as="geometry">
            <mxPoint x="344.42999999999984" y="390.0000000000002" as="sourcePoint" />
            <mxPoint x="344.75" y="350.0000000000002" as="targetPoint" />
          </mxGeometry>
        </mxCell>
        <mxCell id="y6Ay9FpWS1hhhK344CAB-31" value="" style="rounded=0;whiteSpace=wrap;html=1;rotation=90;" vertex="1" parent="1">
          <mxGeometry x="423.5" y="408.4400000000003" width="61.25" height="26.88" as="geometry" />
        </mxCell>
        <mxCell id="y6Ay9FpWS1hhhK344CAB-32" value="" style="endArrow=none;html=1;rounded=0;" edge="1" parent="1">
          <mxGeometry width="50" height="50" relative="1" as="geometry">
            <mxPoint x="453.5" y="390.0000000000002" as="sourcePoint" />
            <mxPoint x="453.5" y="351.0000000000002" as="targetPoint" />
          </mxGeometry>
        </mxCell>
        <mxCell id="y6Ay9FpWS1hhhK344CAB-33" value="&lt;font face=&quot;Times New Roman&quot;&gt;&lt;span style=&quot;font-size: 28px;&quot;&gt;3，39，40，41&amp;nbsp;&amp;nbsp;&lt;/span&gt;&lt;/font&gt;" style="rounded=0;whiteSpace=wrap;html=1;align=center;" vertex="1" parent="1">
          <mxGeometry x="516.75" y="320.0000000000002" width="220" height="40" as="geometry" />
        </mxCell>
        <mxCell id="y6Ay9FpWS1hhhK344CAB-34" value="" style="rounded=0;whiteSpace=wrap;html=1;rotation=90;" vertex="1" parent="1">
          <mxGeometry x="575.5" y="408.4400000000003" width="61.25" height="26.88" as="geometry" />
        </mxCell>
        <mxCell id="y6Ay9FpWS1hhhK344CAB-35" value="" style="endArrow=none;html=1;rounded=0;" edge="1" parent="1">
          <mxGeometry width="50" height="50" relative="1" as="geometry">
            <mxPoint x="605.1799999999998" y="390.0000000000002" as="sourcePoint" />
            <mxPoint x="605.5" y="350.0000000000002" as="targetPoint" />
          </mxGeometry>
        </mxCell>
        <mxCell id="y6Ay9FpWS1hhhK344CAB-36" value="" style="rounded=0;whiteSpace=wrap;html=1;rotation=90;" vertex="1" parent="1">
          <mxGeometry x="519.5" y="408.4400000000003" width="61.25" height="26.88" as="geometry" />
        </mxCell>
        <mxCell id="y6Ay9FpWS1hhhK344CAB-37" value="" style="endArrow=none;html=1;rounded=0;" edge="1" parent="1">
          <mxGeometry width="50" height="50" relative="1" as="geometry">
            <mxPoint x="549.1799999999998" y="390.0000000000002" as="sourcePoint" />
            <mxPoint x="549.5" y="350.0000000000002" as="targetPoint" />
          </mxGeometry>
        </mxCell>
        <mxCell id="y6Ay9FpWS1hhhK344CAB-38" value="" style="rounded=0;whiteSpace=wrap;html=1;rotation=90;" vertex="1" parent="1">
          <mxGeometry x="629.5" y="408.4400000000003" width="61.25" height="26.88" as="geometry" />
        </mxCell>
        <mxCell id="y6Ay9FpWS1hhhK344CAB-39" value="" style="endArrow=none;html=1;rounded=0;" edge="1" parent="1">
          <mxGeometry width="50" height="50" relative="1" as="geometry">
            <mxPoint x="659.5" y="390.0000000000002" as="sourcePoint" />
            <mxPoint x="659.5" y="351.0000000000002" as="targetPoint" />
          </mxGeometry>
        </mxCell>
        <mxCell id="y6Ay9FpWS1hhhK344CAB-40" value="" style="rounded=0;whiteSpace=wrap;html=1;rotation=90;" vertex="1" parent="1">
          <mxGeometry x="685.75" y="408.4400000000003" width="61.25" height="26.88" as="geometry" />
        </mxCell>
        <mxCell id="y6Ay9FpWS1hhhK344CAB-41" value="" style="endArrow=none;html=1;rounded=0;" edge="1" parent="1">
          <mxGeometry width="50" height="50" relative="1" as="geometry">
            <mxPoint x="715.5" y="390.0000000000002" as="sourcePoint" />
            <mxPoint x="715.4299999999998" y="352.0000000000002" as="targetPoint" />
          </mxGeometry>
        </mxCell>
        <mxCell id="y6Ay9FpWS1hhhK344CAB-42" value="&lt;font face=&quot;Times New Roman&quot;&gt;&lt;span style=&quot;font-size: 28px;&quot;&gt;2，11，21&amp;nbsp;&amp;nbsp;&lt;/span&gt;&lt;/font&gt;" style="rounded=0;whiteSpace=wrap;html=1;align=center;" vertex="1" parent="1">
          <mxGeometry x="-91.25" y="190.00000000000023" width="160" height="40" as="geometry" />
        </mxCell>
        <mxCell id="y6Ay9FpWS1hhhK344CAB-43" value="&lt;font face=&quot;Times New Roman&quot;&gt;&lt;span style=&quot;font-size: 28px;&quot;&gt;3，38，42，49&amp;nbsp;&amp;nbsp;&lt;/span&gt;&lt;/font&gt;" style="rounded=0;whiteSpace=wrap;html=1;align=center;" vertex="1" parent="1">
          <mxGeometry x="554.75" y="190.00000000000023" width="235.25" height="42" as="geometry" />
        </mxCell>
        <mxCell id="y6Ay9FpWS1hhhK344CAB-44" value="" style="endArrow=none;html=1;rounded=0;exitX=0.5;exitY=0;exitDx=0;exitDy=0;" edge="1" parent="1" source="y6Ay9FpWS1hhhK344CAB-97">
          <mxGeometry width="50" height="50" relative="1" as="geometry">
            <mxPoint x="-263.625" y="320.0000000000002" as="sourcePoint" />
            <mxPoint x="-61.25" y="220.00000000000023" as="targetPoint" />
          </mxGeometry>
        </mxCell>
        <mxCell id="y6Ay9FpWS1hhhK344CAB-45" value="" style="endArrow=none;html=1;rounded=0;exitX=0.5;exitY=0;exitDx=0;exitDy=0;" edge="1" parent="1">
          <mxGeometry width="50" height="50" relative="1" as="geometry">
            <mxPoint x="-7.25" y="320.0000000000002" as="sourcePoint" />
            <mxPoint x="-7.25" y="220.00000000000023" as="targetPoint" />
          </mxGeometry>
        </mxCell>
        <mxCell id="y6Ay9FpWS1hhhK344CAB-46" value="" style="endArrow=none;html=1;rounded=0;entryX=0.938;entryY=0.75;entryDx=0;entryDy=0;entryPerimeter=0;exitX=0.5;exitY=0;exitDx=0;exitDy=0;" edge="1" source="y6Ay9FpWS1hhhK344CAB-19" target="y6Ay9FpWS1hhhK344CAB-42" parent="1">
          <mxGeometry width="50" height="50" relative="1" as="geometry">
            <mxPoint x="38.75" y="350.0000000000002" as="sourcePoint" />
            <mxPoint x="88.75" y="300.0000000000002" as="targetPoint" />
          </mxGeometry>
        </mxCell>
        <mxCell id="y6Ay9FpWS1hhhK344CAB-47" value="" style="endArrow=none;html=1;rounded=0;exitX=0.5;exitY=0;exitDx=0;exitDy=0;" edge="1" source="y6Ay9FpWS1hhhK344CAB-26" parent="1">
          <mxGeometry width="50" height="50" relative="1" as="geometry">
            <mxPoint x="397.75" y="320.0000000000002" as="sourcePoint" />
            <mxPoint x="593" y="222.00000000000023" as="targetPoint" />
          </mxGeometry>
        </mxCell>
        <mxCell id="y6Ay9FpWS1hhhK344CAB-48" value="" style="endArrow=none;html=1;rounded=0;exitX=0.5;exitY=0;exitDx=0;exitDy=0;" edge="1" source="y6Ay9FpWS1hhhK344CAB-33" parent="1">
          <mxGeometry width="50" height="50" relative="1" as="geometry">
            <mxPoint x="642.75" y="308.96000000000026" as="sourcePoint" />
            <mxPoint x="650" y="219.00000000000023" as="targetPoint" />
          </mxGeometry>
        </mxCell>
        <mxCell id="y6Ay9FpWS1hhhK344CAB-49" value="" style="endArrow=none;html=1;rounded=0;exitX=0.5;exitY=0;exitDx=0;exitDy=0;" edge="1" source="y6Ay9FpWS1hhhK344CAB-53" parent="1">
          <mxGeometry width="50" height="50" relative="1" as="geometry">
            <mxPoint x="864" y="320.00000000000045" as="sourcePoint" />
            <mxPoint x="704.75" y="220.00000000000023" as="targetPoint" />
          </mxGeometry>
        </mxCell>
        <mxCell id="y6Ay9FpWS1hhhK344CAB-50" value="&lt;font face=&quot;Times New Roman&quot;&gt;&lt;span style=&quot;font-size: 29px;&quot;&gt;1，30&lt;/span&gt;&lt;/font&gt;" style="rounded=0;whiteSpace=wrap;html=1;align=center;" vertex="1" parent="1">
          <mxGeometry x="258.75" y="80.00000000000023" width="160" height="40" as="geometry" />
        </mxCell>
        <mxCell id="y6Ay9FpWS1hhhK344CAB-51" value="" style="endArrow=none;html=1;rounded=0;exitX=0.5;exitY=0;exitDx=0;exitDy=0;" edge="1" source="y6Ay9FpWS1hhhK344CAB-42" parent="1">
          <mxGeometry width="50" height="50" relative="1" as="geometry">
            <mxPoint x="481.75" y="330.0000000000002" as="sourcePoint" />
            <mxPoint x="258.75" y="120.00000000000023" as="targetPoint" />
          </mxGeometry>
        </mxCell>
        <mxCell id="y6Ay9FpWS1hhhK344CAB-52" value="" style="endArrow=none;html=1;rounded=0;entryX=1;entryY=1;entryDx=0;entryDy=0;exitX=0.5;exitY=0;exitDx=0;exitDy=0;" edge="1" source="y6Ay9FpWS1hhhK344CAB-43" target="y6Ay9FpWS1hhhK344CAB-50" parent="1">
          <mxGeometry width="50" height="50" relative="1" as="geometry">
            <mxPoint x="568.75" y="330.0000000000002" as="sourcePoint" />
            <mxPoint x="618.75" y="280.0000000000002" as="targetPoint" />
          </mxGeometry>
        </mxCell>
        <mxCell id="y6Ay9FpWS1hhhK344CAB-53" value="&lt;font face=&quot;Times New Roman&quot;&gt;&lt;span style=&quot;font-size: 28px;&quot;&gt;2，45，48&amp;nbsp;&amp;nbsp;&lt;/span&gt;&lt;/font&gt;" style="rounded=0;whiteSpace=wrap;html=1;align=center;" vertex="1" parent="1">
          <mxGeometry x="780" y="320.0000000000002" width="160" height="40" as="geometry" />
        </mxCell>
        <mxCell id="y6Ay9FpWS1hhhK344CAB-54" value="" style="rounded=0;whiteSpace=wrap;html=1;rotation=90;" vertex="1" parent="1">
          <mxGeometry x="836.75" y="408.4400000000003" width="61.25" height="26.88" as="geometry" />
        </mxCell>
        <mxCell id="y6Ay9FpWS1hhhK344CAB-55" value="" style="endArrow=none;html=1;rounded=0;" edge="1" parent="1">
          <mxGeometry width="50" height="50" relative="1" as="geometry">
            <mxPoint x="866.4299999999998" y="390.0000000000002" as="sourcePoint" />
            <mxPoint x="866.75" y="350.0000000000002" as="targetPoint" />
          </mxGeometry>
        </mxCell>
        <mxCell id="y6Ay9FpWS1hhhK344CAB-56" value="" style="rounded=0;whiteSpace=wrap;html=1;rotation=90;" vertex="1" parent="1">
          <mxGeometry x="780" y="408.4400000000003" width="61.25" height="26.88" as="geometry" />
        </mxCell>
        <mxCell id="y6Ay9FpWS1hhhK344CAB-57" value="" style="endArrow=none;html=1;rounded=0;" edge="1" parent="1">
          <mxGeometry width="50" height="50" relative="1" as="geometry">
            <mxPoint x="809.6799999999998" y="390.0000000000002" as="sourcePoint" />
            <mxPoint x="810" y="350.0000000000002" as="targetPoint" />
          </mxGeometry>
        </mxCell>
        <mxCell id="y6Ay9FpWS1hhhK344CAB-58" value="" style="rounded=0;whiteSpace=wrap;html=1;rotation=90;" vertex="1" parent="1">
          <mxGeometry x="888.75" y="408.4400000000003" width="61.25" height="26.88" as="geometry" />
        </mxCell>
        <mxCell id="y6Ay9FpWS1hhhK344CAB-59" value="" style="endArrow=none;html=1;rounded=0;" edge="1" parent="1">
          <mxGeometry width="50" height="50" relative="1" as="geometry">
            <mxPoint x="918.75" y="390.0000000000002" as="sourcePoint" />
            <mxPoint x="918.75" y="351.0000000000002" as="targetPoint" />
          </mxGeometry>
        </mxCell>
        <mxCell id="y6Ay9FpWS1hhhK344CAB-60" value="&lt;font face=&quot;Times New Roman&quot;&gt;&lt;span style=&quot;font-size: 28px;&quot;&gt;2，50，55&amp;nbsp;&amp;nbsp;&lt;/span&gt;&lt;/font&gt;" style="rounded=0;whiteSpace=wrap;html=1;align=center;" vertex="1" parent="1">
          <mxGeometry x="980" y="320.0000000000002" width="160" height="40" as="geometry" />
        </mxCell>
        <mxCell id="y6Ay9FpWS1hhhK344CAB-61" value="" style="rounded=0;whiteSpace=wrap;html=1;rotation=90;" vertex="1" parent="1">
          <mxGeometry x="1036.75" y="408.4400000000003" width="61.25" height="26.88" as="geometry" />
        </mxCell>
        <mxCell id="y6Ay9FpWS1hhhK344CAB-62" value="" style="endArrow=none;html=1;rounded=0;" edge="1" parent="1">
          <mxGeometry width="50" height="50" relative="1" as="geometry">
            <mxPoint x="1066.4299999999998" y="390.0000000000002" as="sourcePoint" />
            <mxPoint x="1066.75" y="350.0000000000002" as="targetPoint" />
          </mxGeometry>
        </mxCell>
        <mxCell id="y6Ay9FpWS1hhhK344CAB-63" value="" style="rounded=0;whiteSpace=wrap;html=1;rotation=90;" vertex="1" parent="1">
          <mxGeometry x="980" y="408.4400000000003" width="61.25" height="26.88" as="geometry" />
        </mxCell>
        <mxCell id="y6Ay9FpWS1hhhK344CAB-64" value="" style="endArrow=none;html=1;rounded=0;" edge="1" parent="1">
          <mxGeometry width="50" height="50" relative="1" as="geometry">
            <mxPoint x="1009.6799999999998" y="390.0000000000002" as="sourcePoint" />
            <mxPoint x="1010" y="350.0000000000002" as="targetPoint" />
          </mxGeometry>
        </mxCell>
        <mxCell id="y6Ay9FpWS1hhhK344CAB-65" value="" style="rounded=0;whiteSpace=wrap;html=1;rotation=90;" vertex="1" parent="1">
          <mxGeometry x="1088.75" y="408.4400000000003" width="61.25" height="26.88" as="geometry" />
        </mxCell>
        <mxCell id="y6Ay9FpWS1hhhK344CAB-66" value="" style="endArrow=none;html=1;rounded=0;" edge="1" parent="1">
          <mxGeometry width="50" height="50" relative="1" as="geometry">
            <mxPoint x="1118.75" y="390.0000000000002" as="sourcePoint" />
            <mxPoint x="1118.75" y="351.0000000000002" as="targetPoint" />
          </mxGeometry>
        </mxCell>
        <mxCell id="y6Ay9FpWS1hhhK344CAB-67" value="" style="endArrow=none;html=1;rounded=0;exitX=0.5;exitY=0;exitDx=0;exitDy=0;" edge="1" source="y6Ay9FpWS1hhhK344CAB-60" parent="1">
          <mxGeometry width="50" height="50" relative="1" as="geometry">
            <mxPoint x="1080" y="308.00000000000045" as="sourcePoint" />
            <mxPoint x="767.0550458715593" y="220" as="targetPoint" />
          </mxGeometry>
        </mxCell>
        <mxCell id="y6Ay9FpWS1hhhK344CAB-106" value="" style="group" vertex="1" connectable="0" parent="1">
          <mxGeometry x="-290" y="320.0000000000002" width="160" height="132.50500000000005" as="geometry" />
        </mxCell>
        <mxCell id="y6Ay9FpWS1hhhK344CAB-97" value="&lt;font face=&quot;Times New Roman&quot;&gt;&lt;span style=&quot;font-size: 28px;&quot;&gt;2，8，10&amp;nbsp;&amp;nbsp;&lt;/span&gt;&lt;/font&gt;" style="rounded=0;whiteSpace=wrap;html=1;align=center;" vertex="1" parent="y6Ay9FpWS1hhhK344CAB-106">
          <mxGeometry width="160" height="40" as="geometry" />
        </mxCell>
        <mxCell id="y6Ay9FpWS1hhhK344CAB-98" value="" style="rounded=0;whiteSpace=wrap;html=1;rotation=90;" vertex="1" parent="y6Ay9FpWS1hhhK344CAB-106">
          <mxGeometry x="61.75" y="88.44000000000005" width="61.25" height="26.88" as="geometry" />
        </mxCell>
        <mxCell id="y6Ay9FpWS1hhhK344CAB-99" value="" style="endArrow=none;html=1;rounded=0;" edge="1" parent="y6Ay9FpWS1hhhK344CAB-106">
          <mxGeometry width="50" height="50" relative="1" as="geometry">
            <mxPoint x="91.42999999999984" y="70" as="sourcePoint" />
            <mxPoint x="91.75" y="30" as="targetPoint" />
          </mxGeometry>
        </mxCell>
        <mxCell id="y6Ay9FpWS1hhhK344CAB-100" value="" style="rounded=0;whiteSpace=wrap;html=1;rotation=90;" vertex="1" parent="y6Ay9FpWS1hhhK344CAB-106">
          <mxGeometry x="6" y="88.44000000000005" width="61.25" height="26.88" as="geometry" />
        </mxCell>
        <mxCell id="y6Ay9FpWS1hhhK344CAB-101" value="" style="endArrow=none;html=1;rounded=0;" edge="1" parent="y6Ay9FpWS1hhhK344CAB-106">
          <mxGeometry width="50" height="50" relative="1" as="geometry">
            <mxPoint x="35.679999999999836" y="70" as="sourcePoint" />
            <mxPoint x="36" y="30" as="targetPoint" />
          </mxGeometry>
        </mxCell>
        <mxCell id="y6Ay9FpWS1hhhK344CAB-102" value="" style="rounded=0;whiteSpace=wrap;html=1;rotation=90;" vertex="1" parent="y6Ay9FpWS1hhhK344CAB-106">
          <mxGeometry x="114.75" y="88.44000000000005" width="61.25" height="26.88" as="geometry" />
        </mxCell>
        <mxCell id="y6Ay9FpWS1hhhK344CAB-103" value="" style="endArrow=none;html=1;rounded=0;" edge="1" parent="y6Ay9FpWS1hhhK344CAB-106">
          <mxGeometry width="50" height="50" relative="1" as="geometry">
            <mxPoint x="144.75" y="70" as="sourcePoint" />
            <mxPoint x="144.75" y="31" as="targetPoint" />
          </mxGeometry>
        </mxCell>
      </root>
    </mxGraphModel>
  </diagram>
</mxfile>
